<svg version="1.1" id="Layer_1" xmlns="http://www.w3.org/2000/svg" xmlns:xlink="http://www.w3.org/1999/xlink" x="0px" y="0px"
	 width="100%" viewBox="0 0 256 256" enable-background="new 0 0 256 256" xml:space="preserve">
<path fill="none" opacity="1.000000" stroke="none" 
	d="
M0.999997,142.000000 
	C1.000000,95.062195 1.000000,48.124382 1.000000,1.000000 
	C64.020775,1.000000 127.041725,1.000000 190.872437,1.256082 
	C190.166138,4.556421 188.287476,7.477345 187.202194,10.668116 
	C183.971268,20.167189 181.111938,29.792316 177.929901,39.308838 
	C177.561569,40.410416 176.228195,41.587631 175.087433,41.970387 
	C164.806519,45.419861 154.442245,48.620869 144.160889,52.069084 
	C140.194626,53.399307 136.978973,55.222679 136.842133,60.533310 
	C136.704025,65.892365 139.461090,68.402954 143.732895,69.851761 
	C154.001740,73.334473 164.377502,76.502373 174.640427,80.001663 
	C175.988464,80.461296 177.505264,81.918198 177.965729,83.251122 
	C181.452148,93.343437 184.684052,103.523499 188.017593,113.668884 
	C189.494629,118.164116 191.673080,121.274918 197.346100,121.149513 
	C202.875519,121.027290 204.608810,117.687897 205.991440,113.493561 
	C209.335114,103.350357 212.590729,93.177727 216.016632,83.062607 
	C216.412262,81.894501 217.466568,80.461540 218.541885,80.085968 
	C231.325348,75.621178 244.170807,71.333870 257.000000,67.000000 
	C257.000000,130.217697 257.000000,193.435379 257.000000,257.000000 
	C240.647415,257.000000 224.292358,257.000000 207.133591,256.736664 
	C207.536804,254.344482 209.088226,252.336288 209.884247,250.063522 
	C212.026978,243.945831 213.704422,237.663803 215.898468,231.566422 
	C216.431076,230.086304 218.027084,228.484085 219.504654,227.934784 
	C226.484848,225.339890 233.728592,223.410431 240.572495,220.519592 
	C242.566940,219.677170 244.483490,216.578720 244.818085,214.279022 
	C245.709229,208.154327 243.994385,206.139038 237.613220,204.023376 
	C231.461624,201.983826 225.242538,200.141144 219.136261,197.977280 
	C217.887054,197.534592 216.473785,196.236511 216.046448,195.014420 
	C213.853226,188.742386 211.893173,182.385696 209.977310,176.020767 
	C208.347992,170.607803 206.048157,169.087921 200.337173,168.932999 
	C194.977295,168.787582 193.373810,172.387054 192.033447,176.367935 
	C189.964722,182.512054 188.141586,188.740540 185.979691,194.850220 
	C185.536835,196.101807 184.248032,197.524918 183.028244,197.951645 
	C176.756622,200.145645 170.333969,201.907089 164.057373,204.088120 
	C160.103119,205.462143 156.932388,207.346878 156.837524,212.656464 
	C156.740891,218.064423 159.625793,220.431473 163.866486,221.902328 
	C170.143768,224.079544 176.553696,225.872528 182.849243,228.000427 
	C184.035065,228.401245 185.517166,229.399078 185.900894,230.466980 
	C189.062332,239.265182 191.996750,248.144958 195.000000,257.000000 
	C130.429352,257.000000 65.858696,257.000000 1.000000,257.000000 
	C1.000000,223.646332 1.000000,190.291824 1.244617,156.134155 
	C4.342206,157.569397 6.863488,160.761612 10.103102,161.888199 
	C28.293083,168.213882 46.642536,174.084091 64.975250,179.992813 
	C67.642540,180.852509 69.191238,182.339050 69.978958,184.970917 
	C71.556610,190.241989 73.227264,195.486511 74.940407,200.715500 
	C78.922836,212.870941 83.163300,224.946732 86.887825,237.180023 
	C89.232658,244.881729 92.832436,248.792267 99.193787,248.999496 
	C108.142563,249.291016 112.288956,246.483597 115.010689,238.271469 
	C115.670166,236.281693 116.296440,234.280823 116.931679,232.283066 
	C121.640945,217.472916 126.479088,202.701736 130.982666,187.829285 
	C132.463577,182.938766 135.131317,180.085373 140.150894,178.961746 
	C144.717621,177.939499 149.178772,176.413315 153.644653,174.979065 
	C165.969238,171.020966 178.267792,166.981934 190.585007,163.000778 
	C196.842499,160.978256 201.617188,156.513092 201.058502,147.868683 
	C200.677811,141.978531 197.092255,136.933502 191.309708,135.105972 
	C173.255615,129.400101 155.230545,123.599915 137.128159,118.051811 
	C134.107391,117.125984 132.865372,115.418488 131.967087,112.651421 
	C126.070274,94.486984 120.058090,76.359924 114.057182,58.229401 
	C111.739349,51.226559 108.122032,48.900425 99.901711,49.000107 
	C93.968796,49.072052 88.976837,52.856335 87.133163,58.675285 
	C81.413239,76.728432 75.610130,94.756027 70.052231,112.858910 
	C69.127792,115.869942 67.447914,117.161148 64.663437,118.030571 
	C53.231609,121.600044 41.676964,124.876976 30.502405,129.139511 
	C20.529741,132.943588 8.815798,133.155258 1.294836,142.403595 
	C1.196554,142.269073 1.098274,142.134537 0.999997,142.000000 
M32.999996,73.528511 
	C33.000099,74.860703 32.974796,76.193466 33.004738,77.524986 
	C33.129421,83.069611 35.194153,84.996407 40.985878,84.999786 
	C46.794579,85.003174 48.884922,83.081810 48.990425,77.554306 
	C49.043243,74.787209 48.999630,72.018272 48.999630,68.999359 
	C52.423817,68.999359 55.234875,69.075539 58.040352,68.982758 
	C63.138500,68.814156 64.999947,66.630615 64.999763,60.999031 
	C64.999580,55.370407 63.135536,53.182434 58.037849,53.017776 
	C55.106205,52.923080 52.169003,53.000599 49.000011,53.000599 
	C49.000011,51.061485 49.000092,49.750561 48.999985,48.439640 
	C48.999863,46.940907 49.050735,45.440102 48.990036,43.943821 
	C48.784012,38.865360 46.610119,36.996170 40.982800,37.000145 
	C35.363743,37.004108 33.178970,38.874554 33.017338,43.978851 
	C32.924557,46.908794 33.000523,49.844090 33.000523,53.000046 
	C30.049299,53.000046 27.737339,52.991184 25.425468,53.001740 
	C18.938469,53.031349 16.991335,54.891296 17.000147,61.034382 
	C17.008888,67.128609 18.972000,68.970726 25.494350,68.999046 
	C26.993055,69.005547 28.511690,69.156876 29.986389,68.968872 
	C33.024914,68.581497 33.208397,70.381805 32.999996,73.528511 
z"/>
<path fill="#86EF77" opacity="1.000000" stroke="none" 
	d="
M0.999997,142.464645 
	C1.098274,142.134537 1.196554,142.269073 1.294836,142.403595 
	C8.815798,133.155258 20.529741,132.943588 30.502405,129.139511 
	C41.676964,124.876976 53.231609,121.600044 64.663437,118.030571 
	C67.447914,117.161148 69.127792,115.869942 70.052231,112.858910 
	C75.610130,94.756027 81.413239,76.728432 87.133163,58.675285 
	C88.976837,52.856335 93.968796,49.072052 99.901711,49.000107 
	C108.122032,48.900425 111.739349,51.226559 114.057182,58.229401 
	C120.058090,76.359924 126.070274,94.486984 131.967087,112.651421 
	C132.865372,115.418488 134.107391,117.125984 137.128159,118.051811 
	C155.230545,123.599915 173.255615,129.400101 191.309708,135.105972 
	C197.092255,136.933502 200.677811,141.978531 201.058502,147.868683 
	C201.617188,156.513092 196.842499,160.978256 190.585007,163.000778 
	C178.267792,166.981934 165.969238,171.020966 153.644653,174.979065 
	C149.178772,176.413315 144.717621,177.939499 140.150894,178.961746 
	C135.131317,180.085373 132.463577,182.938766 130.982666,187.829285 
	C126.479088,202.701736 121.640945,217.472916 116.931679,232.283066 
	C116.296440,234.280823 115.670166,236.281693 115.010689,238.271469 
	C112.288956,246.483597 108.142563,249.291016 99.193787,248.999496 
	C92.832436,248.792267 89.232658,244.881729 86.887825,237.180023 
	C83.163300,224.946732 78.922836,212.870941 74.940407,200.715500 
	C73.227264,195.486511 71.556610,190.241989 69.978958,184.970917 
	C69.191238,182.339050 67.642540,180.852509 64.975250,179.992813 
	C46.642536,174.084091 28.293083,168.213882 10.103102,161.888199 
	C6.863488,160.761612 4.342206,157.569397 1.244617,155.665497 
	C1.000000,151.643097 1.000000,147.286194 0.999997,142.464645 
z"/>
<path fill="#77EF91" opacity="1.000000" stroke="none" 
	d="
M257.000000,66.539368 
	C244.170807,71.333870 231.325348,75.621178 218.541885,80.085968 
	C217.466568,80.461540 216.412262,81.894501 216.016632,83.062607 
	C212.590729,93.177727 209.335114,103.350357 205.991440,113.493561 
	C204.608810,117.687897 202.875519,121.027290 197.346100,121.149513 
	C191.673080,121.274918 189.494629,118.164116 188.017593,113.668884 
	C184.684052,103.523499 181.452148,93.343437 177.965729,83.251122 
	C177.505264,81.918198 175.988464,80.461296 174.640427,80.001663 
	C164.377502,76.502373 154.001740,73.334473 143.732895,69.851761 
	C139.461090,68.402954 136.704025,65.892365 136.842133,60.533310 
	C136.978973,55.222679 140.194626,53.399307 144.160889,52.069084 
	C154.442245,48.620869 164.806519,45.419861 175.087433,41.970387 
	C176.228195,41.587631 177.561569,40.410416 177.929901,39.308838 
	C181.111938,29.792316 183.971268,20.167189 187.202194,10.668116 
	C188.287476,7.477345 190.166138,4.556421 191.341095,1.256082 
	C194.692902,1.000000 198.385818,1.000000 202.202637,1.263028 
	C203.537598,3.637053 205.126419,5.619685 205.894852,7.881090 
	C209.367493,18.100779 212.571930,28.411358 215.980133,38.653530 
	C216.385529,39.871799 217.221024,41.519695 218.238632,41.874592 
	C231.118378,46.366459 244.068115,50.657639 257.000000,55.000000 
	C257.000000,58.692909 257.000000,62.385818 257.000000,66.539368 
z"/>
<path fill="#65F62D" opacity="1.000000" stroke="none" 
	d="
M195.460632,257.000000 
	C191.996750,248.144958 189.062332,239.265182 185.900894,230.466980 
	C185.517166,229.399078 184.035065,228.401245 182.849243,228.000427 
	C176.553696,225.872528 170.143768,224.079544 163.866486,221.902328 
	C159.625793,220.431473 156.740891,218.064423 156.837524,212.656464 
	C156.932388,207.346878 160.103119,205.462143 164.057373,204.088120 
	C170.333969,201.907089 176.756622,200.145645 183.028244,197.951645 
	C184.248032,197.524918 185.536835,196.101807 185.979691,194.850220 
	C188.141586,188.740540 189.964722,182.512054 192.033447,176.367935 
	C193.373810,172.387054 194.977295,168.787582 200.337173,168.932999 
	C206.048157,169.087921 208.347992,170.607803 209.977310,176.020767 
	C211.893173,182.385696 213.853226,188.742386 216.046448,195.014420 
	C216.473785,196.236511 217.887054,197.534592 219.136261,197.977280 
	C225.242538,200.141144 231.461624,201.983826 237.613220,204.023376 
	C243.994385,206.139038 245.709229,208.154327 244.818085,214.279022 
	C244.483490,216.578720 242.566940,219.677170 240.572495,220.519592 
	C233.728592,223.410431 226.484848,225.339890 219.504654,227.934784 
	C218.027084,228.484085 216.431076,230.086304 215.898468,231.566422 
	C213.704422,237.663803 212.026978,243.945831 209.884247,250.063522 
	C209.088226,252.336288 207.536804,254.344482 206.664932,256.736664 
	C203.307098,257.000000 199.614182,257.000000 195.460632,257.000000 
z"/>
<path fill="#000000" opacity="1.000000" stroke="none" 
	d="
M257.000000,54.531342 
	C244.068115,50.657639 231.118378,46.366459 218.238632,41.874592 
	C217.221024,41.519695 216.385529,39.871799 215.980133,38.653530 
	C212.571930,28.411358 209.367493,18.100779 205.894852,7.881090 
	C205.126419,5.619685 203.537598,3.637053 202.663269,1.263028 
	C220.926773,1.000000 238.853561,1.000000 257.000000,1.000000 
	C257.000000,18.686954 257.000000,36.374821 257.000000,54.531342 
z"/>
<path fill="#86EF77" opacity="1.000000" stroke="none" 
	d="
M32.999870,73.061401 
	C33.208397,70.381805 33.024914,68.581497 29.986389,68.968872 
	C28.511690,69.156876 26.993055,69.005547 25.494350,68.999046 
	C18.972000,68.970726 17.008888,67.128609 17.000147,61.034382 
	C16.991335,54.891296 18.938469,53.031349 25.425468,53.001740 
	C27.737339,52.991184 30.049299,53.000046 33.000523,53.000046 
	C33.000523,49.844090 32.924557,46.908794 33.017338,43.978851 
	C33.178970,38.874554 35.363743,37.004108 40.982800,37.000145 
	C46.610119,36.996170 48.784012,38.865360 48.990036,43.943821 
	C49.050735,45.440102 48.999863,46.940907 48.999985,48.439640 
	C49.000092,49.750561 49.000011,51.061485 49.000011,53.000599 
	C52.169003,53.000599 55.106205,52.923080 58.037849,53.017776 
	C63.135536,53.182434 64.999580,55.370407 64.999763,60.999031 
	C64.999947,66.630615 63.138500,68.814156 58.040352,68.982758 
	C55.234875,69.075539 52.423817,68.999359 48.999630,68.999359 
	C48.999630,72.018272 49.043243,74.787209 48.990425,77.554306 
	C48.884922,83.081810 46.794579,85.003174 40.985878,84.999786 
	C35.194153,84.996407 33.129421,83.069611 33.004738,77.524986 
	C32.974796,76.193466 33.000099,74.860703 32.999870,73.061401 
z"/>
</svg>